<?xml version="1.0" encoding="utf-8"?>
<!-- Generator: Adobe Illustrator 28.3.0, SVG Export Plug-In . SVG Version: 6.00 Build 0)  -->
<svg version="1.1" id="Layer_1" xmlns="http://www.w3.org/2000/svg" xmlns:xlink="http://www.w3.org/1999/xlink" x="0px" y="0px"
	 viewBox="0 0 512 512" style="enable-background:new 0 0 512 512;" xml:space="preserve">
<style type="text/css">
	.st0{fill:#37D7FF;}
	.st1{fill:#3E3E3E;}
</style>
<g>
	<circle class="st0" cx="256" cy="256" r="237.71"/>
	<path class="st1" d="M256,493.71V512c141.39-0.01,255.99-114.61,256-256C511.99,114.61,397.39,0.01,256,0
		C114.61,0.01,0.01,114.61,0,256h0c0.01,141.39,114.61,255.99,256,256V493.71v-18.29c-60.65-0.01-115.39-24.53-155.16-64.27
		C61.1,371.39,36.58,316.65,36.57,256c0.01-60.65,24.53-115.39,64.27-155.16C140.61,61.1,195.35,36.58,256,36.57
		c60.65,0.01,115.39,24.53,155.16,64.27c39.74,39.77,64.26,94.51,64.27,155.16c-0.01,60.65-24.53,115.39-64.27,155.16
		c-39.77,39.74-94.51,64.26-155.16,64.27V493.71z"/>
</g>
</svg>
