<?xml version="1.0" encoding="utf-8"?>
<!-- Generator: Adobe Illustrator 27.5.0, SVG Export Plug-In . SVG Version: 6.00 Build 0)  -->
<svg version="1.1" id="Layer_1" xmlns="http://www.w3.org/2000/svg" xmlns:xlink="http://www.w3.org/1999/xlink" x="0px" y="0px"
	 viewBox="0 0 512 512" style="enable-background:new 0 0 512 512;" xml:space="preserve">
<g>
	<path d="M253.96,64.57l2.05-0.51l2.02,0.51l1.73,1.82l219.39,373.28l0.06,5.85l-1.73,1.92l-2.11,0.54H36.66l-2.11-0.54l-1.73-1.92
		l0.06-5.85L252.24,66.39L253.96,64.57z M287.37,50.17c-9.94-17.32-32.04-23.3-49.35-13.35c-5.56,3.19-10.17,7.8-13.35,13.35
		L5.27,423.45c-14.62,24.89,2.91,56.53,31.35,56.53h438.74c28.44,0,46.01-31.67,31.35-56.53L287.37,50.17z"/>
</g>
</svg>
